<?xml version="1.0" standalone="no"?>
<!DOCTYPE svg PUBLIC "-//W3C//DTD SVG 20010904//EN"
 "http://www.w3.org/TR/2001/REC-SVG-20010904/DTD/svg10.dtd">
<svg version="1.0" xmlns="http://www.w3.org/2000/svg"
 width="1000.000000pt" height="1000.000000pt" viewBox="0 0 1000.000000 1000.000000"
 preserveAspectRatio="xMidYMid meet">
<metadata>
Created by potrace 1.14, written by Peter Selinger 2001-2017
</metadata>
<g transform="translate(0.000000,1000.000000) scale(0.100000,-0.100000)"
fill="#000000" stroke="none">
<path d="M5100 9364 c-459 -33 -851 -139 -1225 -329 -840 -427 -1431 -1194
-1629 -2115 -52 -241 -61 -335 -60 -645 0 -305 13 -434 65 -670 93 -420 287
-844 542 -1184 112 -150 188 -232 536 -583 l324 -328 -12 -57 c-22 -102 -25
-306 -7 -418 81 -490 439 -870 926 -981 193 -44 457 -30 641 34 367 128 657
430 763 793 38 133 49 234 43 398 -6 178 -34 296 -107 448 -65 136 -137 239
-240 343 -266 269 -656 395 -1034 334 l-101 -17 -326 324 c-179 178 -349 353
-379 389 -166 201 -297 462 -358 715 -42 172 -56 288 -56 475 1 619 309 1189
829 1536 670 446 1522 415 2180 -79 50 -37 559 -538 1345 -1322 1370 -1366
1293 -1295 1454 -1344 101 -31 249 -29 355 4 189 60 335 207 398 400 53 164
29 353 -64 510 -27 46 -310 335 -1182 1208 -1192 1195 -1366 1365 -1532 1497
-439 350 -991 579 -1549 644 -136 16 -439 27 -540 20z"/>
<path d="M5315 7310 c-482 -99 -856 -483 -940 -968 -30 -173 -13 -412 41 -579
128 -393 453 -691 864 -794 121 -30 353 -37 473 -15 l88 17 342 -336 c188
-184 374 -371 414 -416 401 -449 534 -1078 351 -1659 -40 -129 -153 -354 -236
-469 -406 -568 -1129 -879 -1847 -796 -363 42 -682 171 -989 398 -54 40 -549
527 -1476 1452 -767 766 -1409 1402 -1427 1414 -182 124 -421 145 -614 54
-333 -157 -454 -551 -267 -872 24 -42 382 -406 1378 -1404 740 -742 1395
-1393 1457 -1449 509 -456 1124 -736 1793 -815 167 -19 548 -22 715 -5 684 72
1318 354 1842 821 124 110 288 292 404 447 306 411 500 906 560 1434 17 149
14 497 -5 658 -61 497 -232 945 -521 1357 -104 148 -188 241 -601 662 l-394
402 16 98 c23 138 14 344 -19 474 -121 469 -477 804 -948 894 -113 21 -338 19
-454 -5z"/>
</g>
</svg>
